# xmcd CD database file
#
# Track frame offsets:
#	150
#	26925
#	65182
#	131330
#	152646
#	166979
#	185103
#	210329
#	250285
#	269440
#	293950
#
# Disc length: 4161 seconds
#
# Revision: 1
# Processed by: cddbd v1.5.2PL0 Copyright (c) Steve Scherf et al.
# Submitted via: CDex 1.51
#
DISCID=a9103f0b
DTITLE=Yamano BIG Band Jazz Contest - 37th Yamano BIG Band Jazz Contest(disc1)
DYEAR=2006
DGENRE=Big Band
TTITLE0=The heat of the day
TTITLE1=Sous Les Lofts De Paris
TTITLE2=The Way Up
TTITLE3=Blues in Hoss' Flat
TTITLE4=The More I See You
TTITLE5=Rat Race
TTITLE6=Paper Spoons
TTITLE7=Rose Wind
TTITLE8=Boogie Stop Shuffle
TTITLE9=Blues for Pablo
TTITLE10=Domingo
EXTD=YEAR: 2006
EXTT0=
EXTT1=
EXTT2=
EXTT3=
EXTT4=
EXTT5=
EXTT6=
EXTT7=
EXTT8=
EXTT9=
EXTT10=
PLAYORDER=
